<svg xmlns="http://www.w3.org/2000/svg" width="930" height="500" viewBox="0 0 930 500" role="img" aria-label="achievement board">
  <defs>
    <linearGradient id="bg" x1="0" x2="1" y1="0" y2="1">
      <stop offset="0%" stop-color="#0f172a"/>
      <stop offset="52%" stop-color="#0f766e"/>
      <stop offset="100%" stop-color="#111827"/>
    </linearGradient>
    <filter id="glow"><feGaussianBlur stdDeviation="3.5" result="blur"/><feMerge><feMergeNode in="blur"/><feMergeNode in="SourceGraphic"/></feMerge></filter>
    <style>
      .title { font: 800 28px ui-monospace, SFMono-Regular, Menlo, Consolas, monospace; fill: #ecfeff; }
      .meta { font: 500 12px ui-monospace, SFMono-Regular, Menlo, Consolas, monospace; fill: #a7f3d0; }
      .label { font: 700 13px ui-monospace, SFMono-Regular, Menlo, Consolas, monospace; fill: #ccfbf1; }
      .value { font: 800 21px ui-monospace, SFMono-Regular, Menlo, Consolas, monospace; fill: #ffffff; }
      .small { font: 500 12px ui-monospace, SFMono-Regular, Menlo, Consolas, monospace; fill: #cbd5e1; }
      .rank { font: 900 20px ui-monospace, SFMono-Regular, Menlo, Consolas, monospace; fill: #5eead4; }
    </style>
  </defs>
  <rect width="930" height="500" rx="22" fill="url(#bg)"/>
  <rect x="1" y="1" width="928" height="498" rx="21" fill="none" stroke="#5eead4" stroke-opacity=".38"/>
  <circle cx="72" cy="34" r="6" fill="#5eead4" filter="url(#glow)">
    <animate attributeName="opacity" values=".35;1;.35" dur="2.4s" repeatCount="indefinite"/>
  </circle>
  <text x="92" y="43" class="title">achievement board</text>
  <text x="685" y="482" class="meta">generated 2026-06-23 07:33 UTC</text>
<g transform="translate(64, 178)">
<polygon points="44,0 57,27 87,31 65,52 70,82 44,68 18,82 23,52 1,31 31,27" fill="#5eead4" opacity=".85"><animateTransform attributeName="transform" type="scale" values=".88;1;.88" dur="2.6s" repeatCount="indefinite"/></polygon>
<text x="44" y="112" text-anchor="middle" class="label">commit engine</text>
<text x="44" y="140" text-anchor="middle" class="value">1.6k</text>
</g>
<g transform="translate(200, 196)">
<polygon points="44,0 57,27 87,31 65,52 70,82 44,68 18,82 23,52 1,31 31,27" fill="#5eead4" opacity=".85"><animateTransform attributeName="transform" type="scale" values=".88;1;.88" dur="2.6s" repeatCount="indefinite"/></polygon>
<text x="44" y="112" text-anchor="middle" class="label">PR surface</text>
<text x="44" y="140" text-anchor="middle" class="value">5</text>
</g>
<g transform="translate(336, 178)">
<polygon points="44,0 57,27 87,31 65,52 70,82 44,68 18,82 23,52 1,31 31,27" fill="#5eead4" opacity=".85"><animateTransform attributeName="transform" type="scale" values=".88;1;.88" dur="2.6s" repeatCount="indefinite"/></polygon>
<text x="44" y="112" text-anchor="middle" class="label">review loop</text>
<text x="44" y="140" text-anchor="middle" class="value">0</text>
</g>
<g transform="translate(472, 196)">
<polygon points="44,0 57,27 87,31 65,52 70,82 44,68 18,82 23,52 1,31 31,27" fill="#5eead4" opacity=".85"><animateTransform attributeName="transform" type="scale" values=".88;1;.88" dur="2.6s" repeatCount="indefinite"/></polygon>
<text x="44" y="112" text-anchor="middle" class="label">issue scout</text>
<text x="44" y="140" text-anchor="middle" class="value">4</text>
</g>
<g transform="translate(608, 178)">
<polygon points="44,0 57,27 87,31 65,52 70,82 44,68 18,82 23,52 1,31 31,27" fill="#5eead4" opacity=".85"><animateTransform attributeName="transform" type="scale" values=".88;1;.88" dur="2.6s" repeatCount="indefinite"/></polygon>
<text x="44" y="112" text-anchor="middle" class="label">star gravity</text>
<text x="44" y="140" text-anchor="middle" class="value">59</text>
</g>
<g transform="translate(744, 196)">
<polygon points="44,0 57,27 87,31 65,52 70,82 44,68 18,82 23,52 1,31 31,27" fill="#5eead4" opacity=".85"><animateTransform attributeName="transform" type="scale" values=".88;1;.88" dur="2.6s" repeatCount="indefinite"/></polygon>
<text x="44" y="112" text-anchor="middle" class="label">fork gravity</text>
<text x="44" y="140" text-anchor="middle" class="value">8</text>
</g>
<text x="64" y="440" class="small">local generated trophies; no external trophy service</text>
</svg>
