<svg xmlns="http://www.w3.org/2000/svg" width="930" height="500" viewBox="0 0 930 500" role="img" aria-label="activity radar">
  <defs>
    <linearGradient id="bg" x1="0" x2="1" y1="0" y2="1">
      <stop offset="0%" stop-color="#0f172a"/>
      <stop offset="52%" stop-color="#0f766e"/>
      <stop offset="100%" stop-color="#111827"/>
    </linearGradient>
    <filter id="glow"><feGaussianBlur stdDeviation="3.5" result="blur"/><feMerge><feMergeNode in="blur"/><feMergeNode in="SourceGraphic"/></feMerge></filter>
    <style>
      .title { font: 800 28px ui-monospace, SFMono-Regular, Menlo, Consolas, monospace; fill: #ecfeff; }
      .meta { font: 500 12px ui-monospace, SFMono-Regular, Menlo, Consolas, monospace; fill: #a7f3d0; }
      .label { font: 700 13px ui-monospace, SFMono-Regular, Menlo, Consolas, monospace; fill: #ccfbf1; }
      .value { font: 800 21px ui-monospace, SFMono-Regular, Menlo, Consolas, monospace; fill: #ffffff; }
      .small { font: 500 12px ui-monospace, SFMono-Regular, Menlo, Consolas, monospace; fill: #cbd5e1; }
      .rank { font: 900 20px ui-monospace, SFMono-Regular, Menlo, Consolas, monospace; fill: #5eead4; }
    </style>
  </defs>
  <rect width="930" height="500" rx="22" fill="url(#bg)"/>
  <rect x="1" y="1" width="928" height="498" rx="21" fill="none" stroke="#5eead4" stroke-opacity=".38"/>
  <circle cx="72" cy="34" r="6" fill="#5eead4" filter="url(#glow)">
    <animate attributeName="opacity" values=".35;1;.35" dur="2.4s" repeatCount="indefinite"/>
  </circle>
  <text x="92" y="43" class="title">activity radar</text>
  <text x="685" y="482" class="meta">generated 2026-06-23 07:32 UTC</text>
<rect x="42" y="86" width="46" height="28" rx="7" fill="#5eead4" opacity="0.21"><animate attributeName="opacity" values=".12;0.21" dur="0.50s" fill="freeze"/></rect>
<rect x="106" y="86" width="46" height="28" rx="7" fill="#5eead4" opacity="0.32"><animate attributeName="opacity" values=".12;0.32" dur="0.52s" fill="freeze"/></rect>
<rect x="170" y="86" width="46" height="28" rx="7" fill="#5eead4" opacity="0.33"><animate attributeName="opacity" values=".12;0.33" dur="0.53s" fill="freeze"/></rect>
<rect x="234" y="86" width="46" height="28" rx="7" fill="#5eead4" opacity="0.16"><animate attributeName="opacity" values=".12;0.16" dur="0.55s" fill="freeze"/></rect>
<rect x="298" y="86" width="46" height="28" rx="7" fill="#5eead4" opacity="0.22"><animate attributeName="opacity" values=".12;0.22" dur="0.56s" fill="freeze"/></rect>
<rect x="362" y="86" width="46" height="28" rx="7" fill="#5eead4" opacity="0.19"><animate attributeName="opacity" values=".12;0.19" dur="0.57s" fill="freeze"/></rect>
<rect x="426" y="86" width="46" height="28" rx="7" fill="#5eead4" opacity="0.34"><animate attributeName="opacity" values=".12;0.34" dur="0.59s" fill="freeze"/></rect>
<rect x="490" y="86" width="46" height="28" rx="7" fill="#5eead4" opacity="0.38"><animate attributeName="opacity" values=".12;0.38" dur="0.60s" fill="freeze"/></rect>
<rect x="554" y="86" width="46" height="28" rx="7" fill="#5eead4" opacity="0.17"><animate attributeName="opacity" values=".12;0.17" dur="0.62s" fill="freeze"/></rect>
<rect x="618" y="86" width="46" height="28" rx="7" fill="#5eead4" opacity="0.22"><animate attributeName="opacity" values=".12;0.22" dur="0.64s" fill="freeze"/></rect>
<rect x="682" y="86" width="46" height="28" rx="7" fill="#5eead4" opacity="0.24"><animate attributeName="opacity" values=".12;0.24" dur="0.65s" fill="freeze"/></rect>
<rect x="746" y="86" width="46" height="28" rx="7" fill="#5eead4" opacity="0.30"><animate attributeName="opacity" values=".12;0.30" dur="0.67s" fill="freeze"/></rect>
<rect x="810" y="86" width="46" height="28" rx="7" fill="#5eead4" opacity="0.21"><animate attributeName="opacity" values=".12;0.21" dur="0.68s" fill="freeze"/></rect>
<rect x="42" y="130" width="46" height="28" rx="7" fill="#5eead4" opacity="0.19"><animate attributeName="opacity" values=".12;0.19" dur="0.70s" fill="freeze"/></rect>
<rect x="106" y="130" width="46" height="28" rx="7" fill="#5eead4" opacity="0.19"><animate attributeName="opacity" values=".12;0.19" dur="0.71s" fill="freeze"/></rect>
<rect x="170" y="130" width="46" height="28" rx="7" fill="#5eead4" opacity="0.19"><animate attributeName="opacity" values=".12;0.19" dur="0.72s" fill="freeze"/></rect>
<rect x="234" y="130" width="46" height="28" rx="7" fill="#5eead4" opacity="0.19"><animate attributeName="opacity" values=".12;0.19" dur="0.74s" fill="freeze"/></rect>
<rect x="298" y="130" width="46" height="28" rx="7" fill="#5eead4" opacity="0.31"><animate attributeName="opacity" values=".12;0.31" dur="0.76s" fill="freeze"/></rect>
<rect x="362" y="130" width="46" height="28" rx="7" fill="#5eead4" opacity="0.19"><animate attributeName="opacity" values=".12;0.19" dur="0.77s" fill="freeze"/></rect>
<rect x="426" y="130" width="46" height="28" rx="7" fill="#5eead4" opacity="0.19"><animate attributeName="opacity" values=".12;0.19" dur="0.78s" fill="freeze"/></rect>
<rect x="490" y="130" width="46" height="28" rx="7" fill="#5eead4" opacity="0.17"><animate attributeName="opacity" values=".12;0.17" dur="0.80s" fill="freeze"/></rect>
<rect x="554" y="130" width="46" height="28" rx="7" fill="#5eead4" opacity="0.18"><animate attributeName="opacity" values=".12;0.18" dur="0.81s" fill="freeze"/></rect>
<rect x="618" y="130" width="46" height="28" rx="7" fill="#5eead4" opacity="0.39"><animate attributeName="opacity" values=".12;0.39" dur="0.83s" fill="freeze"/></rect>
<rect x="682" y="130" width="46" height="28" rx="7" fill="#5eead4" opacity="0.20"><animate attributeName="opacity" values=".12;0.20" dur="0.84s" fill="freeze"/></rect>
<rect x="746" y="130" width="46" height="28" rx="7" fill="#5eead4" opacity="0.16"><animate attributeName="opacity" values=".12;0.16" dur="0.86s" fill="freeze"/></rect>
<rect x="810" y="130" width="46" height="28" rx="7" fill="#5eead4" opacity="0.18"><animate attributeName="opacity" values=".12;0.18" dur="0.88s" fill="freeze"/></rect>
<rect x="42" y="174" width="46" height="28" rx="7" fill="#5eead4" opacity="0.16"><animate attributeName="opacity" values=".12;0.16" dur="0.89s" fill="freeze"/></rect>
<rect x="106" y="174" width="46" height="28" rx="7" fill="#5eead4" opacity="0.16"><animate attributeName="opacity" values=".12;0.16" dur="0.91s" fill="freeze"/></rect>
<rect x="170" y="174" width="46" height="28" rx="7" fill="#5eead4" opacity="0.16"><animate attributeName="opacity" values=".12;0.16" dur="0.92s" fill="freeze"/></rect>
<rect x="234" y="174" width="46" height="28" rx="7" fill="#5eead4" opacity="0.16"><animate attributeName="opacity" values=".12;0.16" dur="0.94s" fill="freeze"/></rect>
<rect x="298" y="174" width="46" height="28" rx="7" fill="#5eead4" opacity="0.16"><animate attributeName="opacity" values=".12;0.16" dur="0.95s" fill="freeze"/></rect>
<rect x="362" y="174" width="46" height="28" rx="7" fill="#5eead4" opacity="0.16"><animate attributeName="opacity" values=".12;0.16" dur="0.96s" fill="freeze"/></rect>
<rect x="426" y="174" width="46" height="28" rx="7" fill="#5eead4" opacity="0.17"><animate attributeName="opacity" values=".12;0.17" dur="0.98s" fill="freeze"/></rect>
<rect x="490" y="174" width="46" height="28" rx="7" fill="#5eead4" opacity="0.16"><animate attributeName="opacity" values=".12;0.16" dur="0.99s" fill="freeze"/></rect>
<rect x="554" y="174" width="46" height="28" rx="7" fill="#5eead4" opacity="0.20"><animate attributeName="opacity" values=".12;0.20" dur="1.01s" fill="freeze"/></rect>
<rect x="618" y="174" width="46" height="28" rx="7" fill="#5eead4" opacity="0.16"><animate attributeName="opacity" values=".12;0.16" dur="1.02s" fill="freeze"/></rect>
<rect x="682" y="174" width="46" height="28" rx="7" fill="#5eead4" opacity="0.16"><animate attributeName="opacity" values=".12;0.16" dur="1.04s" fill="freeze"/></rect>
<rect x="746" y="174" width="46" height="28" rx="7" fill="#5eead4" opacity="0.17"><animate attributeName="opacity" values=".12;0.17" dur="1.05s" fill="freeze"/></rect>
<rect x="810" y="174" width="46" height="28" rx="7" fill="#5eead4" opacity="0.16"><animate attributeName="opacity" values=".12;0.16" dur="1.07s" fill="freeze"/></rect>
<rect x="42" y="218" width="46" height="28" rx="7" fill="#5eead4" opacity="0.17"><animate attributeName="opacity" values=".12;0.17" dur="1.08s" fill="freeze"/></rect>
<rect x="106" y="218" width="46" height="28" rx="7" fill="#5eead4" opacity="0.16"><animate attributeName="opacity" values=".12;0.16" dur="1.10s" fill="freeze"/></rect>
<rect x="170" y="218" width="46" height="28" rx="7" fill="#5eead4" opacity="0.16"><animate attributeName="opacity" values=".12;0.16" dur="1.11s" fill="freeze"/></rect>
<rect x="234" y="218" width="46" height="28" rx="7" fill="#5eead4" opacity="0.20"><animate attributeName="opacity" values=".12;0.20" dur="1.13s" fill="freeze"/></rect>
<rect x="298" y="218" width="46" height="28" rx="7" fill="#5eead4" opacity="0.17"><animate attributeName="opacity" values=".12;0.17" dur="1.15s" fill="freeze"/></rect>
<rect x="362" y="218" width="46" height="28" rx="7" fill="#5eead4" opacity="0.20"><animate attributeName="opacity" values=".12;0.20" dur="1.16s" fill="freeze"/></rect>
<rect x="426" y="218" width="46" height="28" rx="7" fill="#5eead4" opacity="0.16"><animate attributeName="opacity" values=".12;0.16" dur="1.17s" fill="freeze"/></rect>
<rect x="490" y="218" width="46" height="28" rx="7" fill="#5eead4" opacity="0.20"><animate attributeName="opacity" values=".12;0.20" dur="1.19s" fill="freeze"/></rect>
<rect x="554" y="218" width="46" height="28" rx="7" fill="#5eead4" opacity="0.16"><animate attributeName="opacity" values=".12;0.16" dur="1.21s" fill="freeze"/></rect>
<rect x="618" y="218" width="46" height="28" rx="7" fill="#5eead4" opacity="0.28"><animate attributeName="opacity" values=".12;0.28" dur="1.22s" fill="freeze"/></rect>
<rect x="682" y="218" width="46" height="28" rx="7" fill="#5eead4" opacity="0.22"><animate attributeName="opacity" values=".12;0.22" dur="1.23s" fill="freeze"/></rect>
<rect x="746" y="218" width="46" height="28" rx="7" fill="#5eead4" opacity="0.20"><animate attributeName="opacity" values=".12;0.20" dur="1.25s" fill="freeze"/></rect>
<rect x="810" y="218" width="46" height="28" rx="7" fill="#5eead4" opacity="0.31"><animate attributeName="opacity" values=".12;0.31" dur="1.27s" fill="freeze"/></rect>
<rect x="42" y="262" width="46" height="28" rx="7" fill="#5eead4" opacity="0.19"><animate attributeName="opacity" values=".12;0.19" dur="1.28s" fill="freeze"/></rect>
<rect x="106" y="262" width="46" height="28" rx="7" fill="#5eead4" opacity="0.33"><animate attributeName="opacity" values=".12;0.33" dur="1.29s" fill="freeze"/></rect>
<rect x="170" y="262" width="46" height="28" rx="7" fill="#5eead4" opacity="0.16"><animate attributeName="opacity" values=".12;0.16" dur="1.31s" fill="freeze"/></rect>
<rect x="234" y="262" width="46" height="28" rx="7" fill="#5eead4" opacity="0.20"><animate attributeName="opacity" values=".12;0.20" dur="1.32s" fill="freeze"/></rect>
<rect x="298" y="262" width="46" height="28" rx="7" fill="#5eead4" opacity="0.16"><animate attributeName="opacity" values=".12;0.16" dur="1.34s" fill="freeze"/></rect>
<rect x="362" y="262" width="46" height="28" rx="7" fill="#5eead4" opacity="0.21"><animate attributeName="opacity" values=".12;0.21" dur="1.35s" fill="freeze"/></rect>
<rect x="426" y="262" width="46" height="28" rx="7" fill="#5eead4" opacity="0.16"><animate attributeName="opacity" values=".12;0.16" dur="1.37s" fill="freeze"/></rect>
<rect x="490" y="262" width="46" height="28" rx="7" fill="#5eead4" opacity="0.16"><animate attributeName="opacity" values=".12;0.16" dur="1.39s" fill="freeze"/></rect>
<rect x="554" y="262" width="46" height="28" rx="7" fill="#5eead4" opacity="0.21"><animate attributeName="opacity" values=".12;0.21" dur="1.40s" fill="freeze"/></rect>
<rect x="618" y="262" width="46" height="28" rx="7" fill="#5eead4" opacity="0.17"><animate attributeName="opacity" values=".12;0.17" dur="1.42s" fill="freeze"/></rect>
<rect x="682" y="262" width="46" height="28" rx="7" fill="#5eead4" opacity="0.18"><animate attributeName="opacity" values=".12;0.18" dur="1.43s" fill="freeze"/></rect>
<rect x="746" y="262" width="46" height="28" rx="7" fill="#5eead4" opacity="0.21"><animate attributeName="opacity" values=".12;0.21" dur="1.44s" fill="freeze"/></rect>
<rect x="810" y="262" width="46" height="28" rx="7" fill="#5eead4" opacity="0.20"><animate attributeName="opacity" values=".12;0.20" dur="1.46s" fill="freeze"/></rect>
<rect x="42" y="306" width="46" height="28" rx="7" fill="#5eead4" opacity="0.26"><animate attributeName="opacity" values=".12;0.26" dur="1.48s" fill="freeze"/></rect>
<rect x="106" y="306" width="46" height="28" rx="7" fill="#5eead4" opacity="0.16"><animate attributeName="opacity" values=".12;0.16" dur="1.49s" fill="freeze"/></rect>
<rect x="170" y="306" width="46" height="28" rx="7" fill="#5eead4" opacity="0.17"><animate attributeName="opacity" values=".12;0.17" dur="1.50s" fill="freeze"/></rect>
<rect x="234" y="306" width="46" height="28" rx="7" fill="#5eead4" opacity="0.22"><animate attributeName="opacity" values=".12;0.22" dur="1.52s" fill="freeze"/></rect>
<rect x="298" y="306" width="46" height="28" rx="7" fill="#5eead4" opacity="0.19"><animate attributeName="opacity" values=".12;0.19" dur="1.53s" fill="freeze"/></rect>
<rect x="362" y="306" width="46" height="28" rx="7" fill="#5eead4" opacity="0.18"><animate attributeName="opacity" values=".12;0.18" dur="1.55s" fill="freeze"/></rect>
<rect x="426" y="306" width="46" height="28" rx="7" fill="#5eead4" opacity="0.16"><animate attributeName="opacity" values=".12;0.16" dur="1.56s" fill="freeze"/></rect>
<rect x="490" y="306" width="46" height="28" rx="7" fill="#5eead4" opacity="0.17"><animate attributeName="opacity" values=".12;0.17" dur="1.58s" fill="freeze"/></rect>
<rect x="554" y="306" width="46" height="28" rx="7" fill="#5eead4" opacity="0.16"><animate attributeName="opacity" values=".12;0.16" dur="1.59s" fill="freeze"/></rect>
<rect x="618" y="306" width="46" height="28" rx="7" fill="#5eead4" opacity="0.16"><animate attributeName="opacity" values=".12;0.16" dur="1.61s" fill="freeze"/></rect>
<rect x="682" y="306" width="46" height="28" rx="7" fill="#5eead4" opacity="0.18"><animate attributeName="opacity" values=".12;0.18" dur="1.62s" fill="freeze"/></rect>
<rect x="746" y="306" width="46" height="28" rx="7" fill="#5eead4" opacity="0.19"><animate attributeName="opacity" values=".12;0.19" dur="1.64s" fill="freeze"/></rect>
<rect x="810" y="306" width="46" height="28" rx="7" fill="#5eead4" opacity="0.16"><animate attributeName="opacity" values=".12;0.16" dur="1.66s" fill="freeze"/></rect>
<rect x="42" y="350" width="46" height="28" rx="7" fill="#5eead4" opacity="0.17"><animate attributeName="opacity" values=".12;0.17" dur="1.67s" fill="freeze"/></rect>
<rect x="106" y="350" width="46" height="28" rx="7" fill="#5eead4" opacity="0.18"><animate attributeName="opacity" values=".12;0.18" dur="1.69s" fill="freeze"/></rect>
<rect x="170" y="350" width="46" height="28" rx="7" fill="#5eead4" opacity="0.16"><animate attributeName="opacity" values=".12;0.16" dur="1.70s" fill="freeze"/></rect>
<rect x="234" y="350" width="46" height="28" rx="7" fill="#5eead4" opacity="0.19"><animate attributeName="opacity" values=".12;0.19" dur="1.71s" fill="freeze"/></rect>
<rect x="298" y="350" width="46" height="28" rx="7" fill="#5eead4" opacity="0.25"><animate attributeName="opacity" values=".12;0.25" dur="1.73s" fill="freeze"/></rect>
<rect x="362" y="350" width="46" height="28" rx="7" fill="#5eead4" opacity="0.30"><animate attributeName="opacity" values=".12;0.30" dur="1.74s" fill="freeze"/></rect>
<rect x="426" y="350" width="46" height="28" rx="7" fill="#5eead4" opacity="0.21"><animate attributeName="opacity" values=".12;0.21" dur="1.76s" fill="freeze"/></rect>
<rect x="490" y="350" width="46" height="28" rx="7" fill="#5eead4" opacity="0.30"><animate attributeName="opacity" values=".12;0.30" dur="1.77s" fill="freeze"/></rect>
<rect x="554" y="350" width="46" height="28" rx="7" fill="#5eead4" opacity="0.16"><animate attributeName="opacity" values=".12;0.16" dur="1.79s" fill="freeze"/></rect>
<rect x="618" y="350" width="46" height="28" rx="7" fill="#5eead4" opacity="0.16"><animate attributeName="opacity" values=".12;0.16" dur="1.80s" fill="freeze"/></rect>
<rect x="682" y="350" width="46" height="28" rx="7" fill="#5eead4" opacity="0.20"><animate attributeName="opacity" values=".12;0.20" dur="1.82s" fill="freeze"/></rect>
<rect x="746" y="350" width="46" height="28" rx="7" fill="#5eead4" opacity="1.00"><animate attributeName="opacity" values=".12;1.00" dur="1.83s" fill="freeze"/></rect>
<rect x="810" y="350" width="46" height="28" rx="7" fill="#5eead4" opacity="0.52"><animate attributeName="opacity" values=".12;0.52" dur="1.85s" fill="freeze"/></rect>
<text x="42" y="440" class="value">1.7k contributions this year</text>
<text x="42" y="468" class="small">last 91 days rendered from GitHub contribution calendar</text>
</svg>
