<svg xmlns="http://www.w3.org/2000/svg" width="930" height="320" viewBox="0 0 930 320" role="img" aria-label="engineering ledger">
  <defs>
    <linearGradient id="bg" x1="0" x2="1" y1="0" y2="1">
      <stop offset="0%" stop-color="#0f172a"/>
      <stop offset="52%" stop-color="#0f766e"/>
      <stop offset="100%" stop-color="#111827"/>
    </linearGradient>
    <filter id="glow"><feGaussianBlur stdDeviation="3.5" result="blur"/><feMerge><feMergeNode in="blur"/><feMergeNode in="SourceGraphic"/></feMerge></filter>
    <style>
      .title { font: 800 28px ui-monospace, SFMono-Regular, Menlo, Consolas, monospace; fill: #ecfeff; }
      .meta { font: 500 12px ui-monospace, SFMono-Regular, Menlo, Consolas, monospace; fill: #a7f3d0; }
      .label { font: 700 13px ui-monospace, SFMono-Regular, Menlo, Consolas, monospace; fill: #ccfbf1; }
      .value { font: 800 21px ui-monospace, SFMono-Regular, Menlo, Consolas, monospace; fill: #ffffff; }
      .small { font: 500 12px ui-monospace, SFMono-Regular, Menlo, Consolas, monospace; fill: #cbd5e1; }
      .rank { font: 900 20px ui-monospace, SFMono-Regular, Menlo, Consolas, monospace; fill: #5eead4; }
    </style>
  </defs>
  <rect width="930" height="320" rx="22" fill="url(#bg)"/>
  <rect x="1" y="1" width="928" height="318" rx="21" fill="none" stroke="#5eead4" stroke-opacity=".38"/>
  <circle cx="72" cy="34" r="6" fill="#5eead4" filter="url(#glow)">
    <animate attributeName="opacity" values=".35;1;.35" dur="2.4s" repeatCount="indefinite"/>
  </circle>
  <text x="92" y="43" class="title">engineering ledger</text>
  <text x="685" y="302" class="meta">generated 2026-06-23 07:33 UTC</text>
<rect x="36" y="82" width="186" height="66" rx="14" fill="#020617" fill-opacity=".42" stroke="#99f6e4" stroke-opacity=".2"/>
<text x="52" y="110" class="label">year</text>
<text x="52" y="138" class="value">1.7k</text>
<rect x="252" y="82" width="186" height="66" rx="14" fill="#020617" fill-opacity=".42" stroke="#99f6e4" stroke-opacity=".2"/>
<text x="268" y="110" class="label">commits+</text>
<text x="268" y="138" class="value">1.6k</text>
<rect x="468" y="82" width="186" height="66" rx="14" fill="#020617" fill-opacity=".42" stroke="#99f6e4" stroke-opacity=".2"/>
<text x="484" y="110" class="label">PRs</text>
<text x="484" y="138" class="value">5</text>
<rect x="684" y="82" width="186" height="66" rx="14" fill="#020617" fill-opacity=".42" stroke="#99f6e4" stroke-opacity=".2"/>
<text x="700" y="110" class="label">reviews</text>
<text x="700" y="138" class="value">0</text>
<rect x="36" y="174" width="186" height="66" rx="14" fill="#020617" fill-opacity=".42" stroke="#99f6e4" stroke-opacity=".2"/>
<text x="52" y="202" class="label">issues</text>
<text x="52" y="230" class="value">4</text>
<rect x="252" y="174" width="186" height="66" rx="14" fill="#020617" fill-opacity=".42" stroke="#99f6e4" stroke-opacity=".2"/>
<text x="268" y="202" class="label">stars</text>
<text x="268" y="230" class="value">59</text>
<rect x="468" y="174" width="186" height="66" rx="14" fill="#020617" fill-opacity=".42" stroke="#99f6e4" stroke-opacity=".2"/>
<text x="484" y="202" class="label">forks</text>
<text x="484" y="230" class="value">8</text>
<rect x="684" y="174" width="186" height="66" rx="14" fill="#020617" fill-opacity=".42" stroke="#99f6e4" stroke-opacity=".2"/>
<text x="700" y="202" class="label">repos</text>
<text x="700" y="230" class="value">101</text>
<text x="38" y="286" class="small">252/365 active days - best day 2026-06-22 / 93 - private-aware when PROFILE_TOKEN exists</text>
</svg>
