<svg xmlns="http://www.w3.org/2000/svg" width="930" height="500" viewBox="0 0 930 500" role="img" aria-label="top followers by engineering signal">
  <defs>
    <linearGradient id="bg" x1="0" x2="1" y1="0" y2="1">
      <stop offset="0%" stop-color="#0f172a"/>
      <stop offset="52%" stop-color="#0f766e"/>
      <stop offset="100%" stop-color="#111827"/>
    </linearGradient>
    <filter id="glow"><feGaussianBlur stdDeviation="3.5" result="blur"/><feMerge><feMergeNode in="blur"/><feMergeNode in="SourceGraphic"/></feMerge></filter>
    <style>
      .title { font: 800 28px ui-monospace, SFMono-Regular, Menlo, Consolas, monospace; fill: #ecfeff; }
      .meta { font: 500 12px ui-monospace, SFMono-Regular, Menlo, Consolas, monospace; fill: #a7f3d0; }
      .label { font: 700 13px ui-monospace, SFMono-Regular, Menlo, Consolas, monospace; fill: #ccfbf1; }
      .value { font: 800 21px ui-monospace, SFMono-Regular, Menlo, Consolas, monospace; fill: #ffffff; }
      .small { font: 500 12px ui-monospace, SFMono-Regular, Menlo, Consolas, monospace; fill: #cbd5e1; }
      .rank { font: 900 20px ui-monospace, SFMono-Regular, Menlo, Consolas, monospace; fill: #5eead4; }
    </style>
  </defs>
  <rect width="930" height="500" rx="22" fill="url(#bg)"/>
  <rect x="1" y="1" width="928" height="498" rx="21" fill="none" stroke="#5eead4" stroke-opacity=".38"/>
  <circle cx="72" cy="34" r="6" fill="#5eead4" filter="url(#glow)">
    <animate attributeName="opacity" values=".35;1;.35" dur="2.4s" repeatCount="indefinite"/>
  </circle>
  <text x="92" y="43" class="title">top followers by engineering signal</text>
  <text x="685" y="482" class="meta">generated 2026-06-23 07:32 UTC</text>
<text x="38" y="108" class="rank">#1</text>
<text x="92" y="100" class="label">standardgalactic</text>
<rect x="92" y="110" width="430" height="8" rx="4" fill="#5eead4" opacity=".78"><animate attributeName="width" values="24;430" dur="1.3s" fill="freeze"/></rect>
<text x="548" y="100" class="small">22k followers</text>
<text x="690" y="100" class="small">833 stars</text>
<text x="805" y="100" class="small">1.5k year</text>
<text x="38" y="156" class="rank">#2</text>
<text x="92" y="148" class="label">mostypc123</text>
<rect x="92" y="158" width="24" height="8" rx="4" fill="#5eead4" opacity=".78"><animate attributeName="width" values="24;24" dur="1.3s" fill="freeze"/></rect>
<text x="548" y="148" class="small">95 followers</text>
<text x="690" y="148" class="small">32 stars</text>
<text x="805" y="148" class="small">1.4k year</text>
<text x="38" y="204" class="rank">#3</text>
<text x="92" y="196" class="label">GalactHD</text>
<rect x="92" y="206" width="24" height="8" rx="4" fill="#5eead4" opacity=".78"><animate attributeName="width" values="24;24" dur="1.3s" fill="freeze"/></rect>
<text x="548" y="196" class="small">28 followers</text>
<text x="690" y="196" class="small">11 stars</text>
<text x="805" y="196" class="small">1.4k year</text>
<text x="38" y="252" class="rank">#4</text>
<text x="92" y="244" class="label">StunxFS</text>
<rect x="92" y="254" width="24" height="8" rx="4" fill="#5eead4" opacity=".78"><animate attributeName="width" values="24;24" dur="1.3s" fill="freeze"/></rect>
<text x="548" y="244" class="small">54 followers</text>
<text x="690" y="244" class="small">67 stars</text>
<text x="805" y="244" class="small">1.1k year</text>
<text x="38" y="300" class="rank">#5</text>
<text x="92" y="292" class="label">campoyerick</text>
<rect x="92" y="302" width="24" height="8" rx="4" fill="#5eead4" opacity=".78"><animate attributeName="width" values="24;24" dur="1.3s" fill="freeze"/></rect>
<text x="548" y="292" class="small">10 followers</text>
<text x="690" y="292" class="small">5 stars</text>
<text x="805" y="292" class="small">1.3k year</text>
<text x="38" y="348" class="rank">#6</text>
<text x="92" y="340" class="label">HarukaYamamoto0</text>
<rect x="92" y="350" width="24" height="8" rx="4" fill="#5eead4" opacity=".78"><animate attributeName="width" values="24;24" dur="1.3s" fill="freeze"/></rect>
<text x="548" y="340" class="small">28 followers</text>
<text x="690" y="340" class="small">46 stars</text>
<text x="805" y="340" class="small">790 year</text>
<text x="38" y="396" class="rank">#7</text>
<text x="92" y="388" class="label">Tal0na</text>
<rect x="92" y="398" width="24" height="8" rx="4" fill="#5eead4" opacity=".78"><animate attributeName="width" values="24;24" dur="1.3s" fill="freeze"/></rect>
<text x="548" y="388" class="small">30 followers</text>
<text x="690" y="388" class="small">170 stars</text>
<text x="805" y="388" class="small">368 year</text>
<text x="38" y="444" class="rank">#8</text>
<text x="92" y="436" class="label">simples1</text>
<rect x="92" y="446" width="24" height="8" rx="4" fill="#5eead4" opacity=".78"><animate attributeName="width" values="24;24" dur="1.3s" fill="freeze"/></rect>
<text x="548" y="436" class="small">200 followers</text>
<text x="690" y="436" class="small">39 stars</text>
<text x="805" y="436" class="small">40 year</text>
</svg>
